<mxfile host="app.diagrams.net" agent="Mozilla/5.0 (Windows NT 10.0; Win64; x64) AppleWebKit/537.36 (KHTML, like Gecko) Chrome/129.0.0.0 Safari/537.36" version="24.7.17">
  <diagram name="Page-1" id="aHRX7ZCT89dfClAJ-BJp">
    <mxGraphModel dx="1434" dy="772" grid="1" gridSize="10" guides="1" tooltips="1" connect="1" arrows="1" fold="1" page="1" pageScale="1" pageWidth="827" pageHeight="1169" math="0" shadow="0">
      <root>
        <mxCell id="0" />
        <mxCell id="1" parent="0" />
        <mxCell id="qMInGugSPwoXezCMGcF5-1" value="User" style="shape=umlActor;verticalLabelPosition=bottom;verticalAlign=top;html=1;outlineConnect=0;" parent="1" vertex="1">
          <mxGeometry x="110" y="220" width="30" height="60" as="geometry" />
        </mxCell>
        <mxCell id="qMInGugSPwoXezCMGcF5-4" value="" style="endArrow=classic;html=1;rounded=0;" parent="1" edge="1">
          <mxGeometry width="50" height="50" relative="1" as="geometry">
            <mxPoint x="160" y="249.5" as="sourcePoint" />
            <mxPoint x="240" y="249.5" as="targetPoint" />
          </mxGeometry>
        </mxCell>
        <mxCell id="qMInGugSPwoXezCMGcF5-5" value="1 -&amp;nbsp;&lt;span style=&quot;background-color: initial;&quot;&gt;User writes&lt;/span&gt;&lt;div&gt;workflow&lt;/div&gt;&lt;div&gt;as DAG.&lt;/div&gt;" style="text;html=1;align=center;verticalAlign=middle;whiteSpace=wrap;rounded=0;" parent="1" vertex="1">
          <mxGeometry x="170" y="200" width="60" height="30" as="geometry" />
        </mxCell>
        <mxCell id="qMInGugSPwoXezCMGcF5-6" value="" style="shape=note;whiteSpace=wrap;html=1;backgroundOutline=1;darkOpacity=0.05;" parent="1" vertex="1">
          <mxGeometry x="270" y="210" width="50" height="70" as="geometry" />
        </mxCell>
        <mxCell id="qMInGugSPwoXezCMGcF5-7" value="DAG File (Python)" style="text;html=1;align=center;verticalAlign=middle;whiteSpace=wrap;rounded=0;" parent="1" vertex="1">
          <mxGeometry x="260" y="300" width="60" height="30" as="geometry" />
        </mxCell>
        <mxCell id="qMInGugSPwoXezCMGcF5-8" value="" style="rounded=0;whiteSpace=wrap;html=1;fillColor=none;" parent="1" vertex="1">
          <mxGeometry x="400" y="170" width="390" height="410" as="geometry" />
        </mxCell>
        <mxCell id="qMInGugSPwoXezCMGcF5-9" value="&lt;b&gt;Airflow Scheduler&lt;/b&gt;" style="text;html=1;align=center;verticalAlign=middle;whiteSpace=wrap;rounded=0;" parent="1" vertex="1">
          <mxGeometry x="540" y="180" width="110" height="30" as="geometry" />
        </mxCell>
        <mxCell id="qMInGugSPwoXezCMGcF5-10" value="2 -&amp;nbsp;&lt;span style=&quot;background-color: initial;&quot;&gt;Airflow scheduler parses DAG and schedules&lt;/span&gt;&lt;div&gt;tasks according to DAG schedule, accounting&lt;/div&gt;&lt;div&gt;for dependencies between tasks.&lt;/div&gt;" style="text;html=1;align=center;verticalAlign=middle;whiteSpace=wrap;rounded=0;" parent="1" vertex="1">
          <mxGeometry x="440" y="130" width="270" height="30" as="geometry" />
        </mxCell>
        <mxCell id="qMInGugSPwoXezCMGcF5-11" value="" style="endArrow=classic;html=1;rounded=0;entryX=0;entryY=0.5;entryDx=0;entryDy=0;" parent="1" target="qMInGugSPwoXezCMGcF5-13" edge="1">
          <mxGeometry width="50" height="50" relative="1" as="geometry">
            <mxPoint x="330" y="249.5" as="sourcePoint" />
            <mxPoint x="390" y="250" as="targetPoint" />
          </mxGeometry>
        </mxCell>
        <mxCell id="qMInGugSPwoXezCMGcF5-13" value="&lt;div&gt;Read DAGs from files&lt;/div&gt;&lt;div&gt;(tasks, dependencies +&lt;/div&gt;&lt;div&gt;schedule interval)&lt;/div&gt;" style="rounded=0;whiteSpace=wrap;html=1;fillColor=none;" parent="1" vertex="1">
          <mxGeometry x="414" y="225" width="136" height="50" as="geometry" />
        </mxCell>
        <mxCell id="qMInGugSPwoXezCMGcF5-14" value="&lt;div&gt;If DAG schedule&lt;/div&gt;&lt;div&gt;has passed,&lt;/div&gt;&lt;div&gt;schedule DAG tasks&lt;/div&gt;" style="rounded=0;whiteSpace=wrap;html=1;fillColor=none;" parent="1" vertex="1">
          <mxGeometry x="640" y="225" width="136" height="50" as="geometry" />
        </mxCell>
        <mxCell id="qMInGugSPwoXezCMGcF5-15" value="" style="endArrow=classic;html=1;rounded=0;entryX=0;entryY=0.5;entryDx=0;entryDy=0;exitX=1;exitY=0.5;exitDx=0;exitDy=0;" parent="1" source="qMInGugSPwoXezCMGcF5-13" target="qMInGugSPwoXezCMGcF5-14" edge="1">
          <mxGeometry width="50" height="50" relative="1" as="geometry">
            <mxPoint x="340" y="259.5" as="sourcePoint" />
            <mxPoint x="424" y="260" as="targetPoint" />
          </mxGeometry>
        </mxCell>
        <mxCell id="qMInGugSPwoXezCMGcF5-16" value="" style="rounded=0;whiteSpace=wrap;html=1;fillColor=none;dashed=1;connectable=0;" parent="1" vertex="1">
          <mxGeometry x="640" y="300" width="136" height="270" as="geometry" />
        </mxCell>
        <mxCell id="qMInGugSPwoXezCMGcF5-17" value="&lt;b&gt;For Each Schedule task&lt;/b&gt;" style="text;html=1;align=center;verticalAlign=middle;whiteSpace=wrap;rounded=0;" parent="1" vertex="1">
          <mxGeometry x="653" y="310" width="110" height="30" as="geometry" />
        </mxCell>
        <mxCell id="qMInGugSPwoXezCMGcF5-18" value="" style="rounded=0;whiteSpace=wrap;html=1;fillColor=none;" parent="1" vertex="1">
          <mxGeometry x="250" y="140" width="90" height="210" as="geometry" />
        </mxCell>
        <mxCell id="qMInGugSPwoXezCMGcF5-19" value="DAG Folder" style="text;html=1;align=center;verticalAlign=middle;whiteSpace=wrap;rounded=0;" parent="1" vertex="1">
          <mxGeometry x="250" y="150" width="90" height="30" as="geometry" />
        </mxCell>
        <mxCell id="qMInGugSPwoXezCMGcF5-20" value="&lt;div&gt;Check task&lt;/div&gt;&lt;div&gt;dependencies&lt;/div&gt;" style="rounded=0;whiteSpace=wrap;html=1;fillColor=none;" parent="1" vertex="1">
          <mxGeometry x="655" y="360" width="106" height="50" as="geometry" />
        </mxCell>
        <mxCell id="qMInGugSPwoXezCMGcF5-21" value="" style="endArrow=classic;html=1;rounded=0;" parent="1" edge="1">
          <mxGeometry width="50" height="50" relative="1" as="geometry">
            <mxPoint x="710" y="420" as="sourcePoint" />
            <mxPoint x="710" y="490" as="targetPoint" />
          </mxGeometry>
        </mxCell>
        <mxCell id="qMInGugSPwoXezCMGcF5-23" value="&lt;span style=&quot;font-size: 11px; text-wrap: nowrap; background-color: rgb(255, 255, 255);&quot;&gt;If dependencies of &lt;br&gt;task are satisfied&lt;/span&gt;" style="text;html=1;align=center;verticalAlign=middle;whiteSpace=wrap;rounded=0;" parent="1" vertex="1">
          <mxGeometry x="659" y="440" width="102" height="20" as="geometry" />
        </mxCell>
        <mxCell id="qMInGugSPwoXezCMGcF5-24" value="&lt;div&gt;Add task to&lt;/div&gt;&lt;div&gt;execution queue&lt;/div&gt;" style="rounded=0;whiteSpace=wrap;html=1;fillColor=none;" parent="1" vertex="1">
          <mxGeometry x="659" y="500" width="106" height="50" as="geometry" />
        </mxCell>
        <mxCell id="qMInGugSPwoXezCMGcF5-25" value="" style="endArrow=classic;html=1;rounded=0;exitX=0.5;exitY=1;exitDx=0;exitDy=0;" parent="1" source="qMInGugSPwoXezCMGcF5-14" edge="1">
          <mxGeometry width="50" height="50" relative="1" as="geometry">
            <mxPoint x="560" y="260" as="sourcePoint" />
            <mxPoint x="708" y="300" as="targetPoint" />
          </mxGeometry>
        </mxCell>
        <mxCell id="qMInGugSPwoXezCMGcF5-26" value="Wait X seconds" style="rounded=0;whiteSpace=wrap;html=1;fillColor=none;" parent="1" vertex="1">
          <mxGeometry x="429" y="310" width="106" height="50" as="geometry" />
        </mxCell>
        <mxCell id="qMInGugSPwoXezCMGcF5-27" value="" style="endArrow=classic;html=1;rounded=0;exitX=0.5;exitY=0;exitDx=0;exitDy=0;entryX=0.5;entryY=1;entryDx=0;entryDy=0;" parent="1" source="qMInGugSPwoXezCMGcF5-26" target="qMInGugSPwoXezCMGcF5-13" edge="1">
          <mxGeometry width="50" height="50" relative="1" as="geometry">
            <mxPoint x="718" y="285" as="sourcePoint" />
            <mxPoint x="718" y="310" as="targetPoint" />
          </mxGeometry>
        </mxCell>
        <mxCell id="qMInGugSPwoXezCMGcF5-28" value="" style="endArrow=classic;html=1;rounded=0;entryX=1;entryY=0.5;entryDx=0;entryDy=0;" parent="1" target="qMInGugSPwoXezCMGcF5-26" edge="1">
          <mxGeometry width="50" height="50" relative="1" as="geometry">
            <mxPoint x="640" y="335" as="sourcePoint" />
            <mxPoint x="492" y="285" as="targetPoint" />
          </mxGeometry>
        </mxCell>
        <mxCell id="qMInGugSPwoXezCMGcF5-29" value="" style="shape=cylinder3;whiteSpace=wrap;html=1;boundedLbl=1;backgroundOutline=1;size=15;" parent="1" vertex="1">
          <mxGeometry x="565" y="640" width="60" height="80" as="geometry" />
        </mxCell>
        <mxCell id="qMInGugSPwoXezCMGcF5-30" value="" style="triangle;whiteSpace=wrap;html=1;" parent="1" vertex="1">
          <mxGeometry x="850" y="230" width="60" height="80" as="geometry" />
        </mxCell>
        <mxCell id="qMInGugSPwoXezCMGcF5-31" value="Execution Queue" style="text;html=1;align=center;verticalAlign=middle;whiteSpace=wrap;rounded=0;" parent="1" vertex="1">
          <mxGeometry x="842" y="320" width="90" height="30" as="geometry" />
        </mxCell>
        <mxCell id="qMInGugSPwoXezCMGcF5-32" value="" style="endArrow=none;dashed=1;html=1;dashPattern=1 3;strokeWidth=2;rounded=0;exitX=1;exitY=0.5;exitDx=0;exitDy=0;" parent="1" source="qMInGugSPwoXezCMGcF5-24" edge="1">
          <mxGeometry width="50" height="50" relative="1" as="geometry">
            <mxPoint x="830" y="530" as="sourcePoint" />
            <mxPoint x="820" y="525" as="targetPoint" />
          </mxGeometry>
        </mxCell>
        <mxCell id="qMInGugSPwoXezCMGcF5-33" value="" style="endArrow=none;dashed=1;html=1;dashPattern=1 3;strokeWidth=2;rounded=0;" parent="1" edge="1">
          <mxGeometry width="50" height="50" relative="1" as="geometry">
            <mxPoint x="820" y="270" as="sourcePoint" />
            <mxPoint x="820" y="530" as="targetPoint" />
          </mxGeometry>
        </mxCell>
        <mxCell id="qMInGugSPwoXezCMGcF5-34" value="" style="endArrow=classic;html=1;rounded=0;entryX=0;entryY=0.5;entryDx=0;entryDy=0;dashed=1;" parent="1" target="qMInGugSPwoXezCMGcF5-30" edge="1">
          <mxGeometry width="50" height="50" relative="1" as="geometry">
            <mxPoint x="820" y="270" as="sourcePoint" />
            <mxPoint x="870" y="220" as="targetPoint" />
          </mxGeometry>
        </mxCell>
        <mxCell id="qMInGugSPwoXezCMGcF5-35" value="" style="rounded=0;whiteSpace=wrap;html=1;fillColor=none;" parent="1" vertex="1">
          <mxGeometry x="932" y="160" width="188" height="260" as="geometry" />
        </mxCell>
        <mxCell id="qMInGugSPwoXezCMGcF5-36" value="3 -&amp;nbsp;&lt;span style=&quot;background-color: initial;&quot;&gt;Airflow workers&lt;/span&gt;&lt;div&gt;execute scheduled&lt;/div&gt;&lt;div&gt;tasks.&lt;/div&gt;" style="text;html=1;align=center;verticalAlign=middle;whiteSpace=wrap;rounded=0;" parent="1" vertex="1">
          <mxGeometry x="891" y="120" width="270" height="30" as="geometry" />
        </mxCell>
        <mxCell id="qMInGugSPwoXezCMGcF5-37" value="&lt;b&gt;Airflow Workers&lt;/b&gt;" style="text;html=1;align=center;verticalAlign=middle;whiteSpace=wrap;rounded=0;" parent="1" vertex="1">
          <mxGeometry x="980" y="180" width="110" height="30" as="geometry" />
        </mxCell>
        <mxCell id="qMInGugSPwoXezCMGcF5-38" value="Execute task" style="rounded=0;whiteSpace=wrap;html=1;fillColor=none;" parent="1" vertex="1">
          <mxGeometry x="954" y="230" width="136" height="50" as="geometry" />
        </mxCell>
        <mxCell id="qMInGugSPwoXezCMGcF5-39" value="" style="endArrow=classic;html=1;rounded=0;exitX=0.5;exitY=1;exitDx=0;exitDy=0;entryX=0.5;entryY=0;entryDx=0;entryDy=0;" parent="1" source="qMInGugSPwoXezCMGcF5-38" target="qMInGugSPwoXezCMGcF5-40" edge="1">
          <mxGeometry width="50" height="50" relative="1" as="geometry">
            <mxPoint x="718" y="285" as="sourcePoint" />
            <mxPoint x="718" y="310" as="targetPoint" />
          </mxGeometry>
        </mxCell>
        <mxCell id="qMInGugSPwoXezCMGcF5-40" value="&lt;div&gt;Retrieve&lt;/div&gt;&lt;div&gt;task results&lt;/div&gt;" style="rounded=0;whiteSpace=wrap;html=1;fillColor=none;" parent="1" vertex="1">
          <mxGeometry x="954" y="330" width="136" height="50" as="geometry" />
        </mxCell>
        <mxCell id="qMInGugSPwoXezCMGcF5-41" value="" style="endArrow=none;dashed=1;html=1;strokeWidth=2;rounded=0;exitX=0.5;exitY=1;exitDx=0;exitDy=0;" parent="1" source="qMInGugSPwoXezCMGcF5-35" edge="1">
          <mxGeometry width="50" height="50" relative="1" as="geometry">
            <mxPoint x="830" y="280" as="sourcePoint" />
            <mxPoint x="1030" y="690" as="targetPoint" />
          </mxGeometry>
        </mxCell>
        <mxCell id="qMInGugSPwoXezCMGcF5-42" value="&lt;div&gt;Store&lt;/div&gt;&lt;div&gt;task results&lt;/div&gt;" style="text;html=1;align=center;verticalAlign=middle;whiteSpace=wrap;rounded=0;" parent="1" vertex="1">
          <mxGeometry x="827" y="670" width="90" height="30" as="geometry" />
        </mxCell>
        <mxCell id="qMInGugSPwoXezCMGcF5-43" value="" style="endArrow=none;dashed=1;html=1;strokeWidth=2;rounded=0;entryX=1;entryY=0.5;entryDx=0;entryDy=0;" parent="1" target="qMInGugSPwoXezCMGcF5-42" edge="1">
          <mxGeometry width="50" height="50" relative="1" as="geometry">
            <mxPoint x="1030" y="690" as="sourcePoint" />
            <mxPoint x="1040" y="700" as="targetPoint" />
          </mxGeometry>
        </mxCell>
        <mxCell id="qMInGugSPwoXezCMGcF5-45" value="" style="endArrow=classic;html=1;rounded=0;entryX=1;entryY=0.5;entryDx=0;entryDy=0;dashed=1;entryPerimeter=0;exitX=0;exitY=0.5;exitDx=0;exitDy=0;" parent="1" source="qMInGugSPwoXezCMGcF5-42" target="qMInGugSPwoXezCMGcF5-29" edge="1">
          <mxGeometry width="50" height="50" relative="1" as="geometry">
            <mxPoint x="830" y="280" as="sourcePoint" />
            <mxPoint x="867" y="280" as="targetPoint" />
          </mxGeometry>
        </mxCell>
        <mxCell id="qMInGugSPwoXezCMGcF5-46" value="" style="endArrow=classic;html=1;rounded=0;entryX=0.5;entryY=0;entryDx=0;entryDy=0;dashed=1;entryPerimeter=0;exitX=0.5;exitY=1;exitDx=0;exitDy=0;" parent="1" source="qMInGugSPwoXezCMGcF5-8" target="qMInGugSPwoXezCMGcF5-29" edge="1">
          <mxGeometry width="50" height="50" relative="1" as="geometry">
            <mxPoint x="837" y="695" as="sourcePoint" />
            <mxPoint x="635" y="690" as="targetPoint" />
          </mxGeometry>
        </mxCell>
        <mxCell id="qMInGugSPwoXezCMGcF5-47" value="&lt;div&gt;Store&amp;nbsp;&lt;span style=&quot;background-color: initial;&quot;&gt;serialized&lt;/span&gt;&lt;/div&gt;&lt;div&gt;DAGs&lt;/div&gt;" style="text;html=1;align=center;verticalAlign=middle;whiteSpace=wrap;rounded=0;" parent="1" vertex="1">
          <mxGeometry x="550" y="590" width="90" height="30" as="geometry" />
        </mxCell>
        <mxCell id="qMInGugSPwoXezCMGcF5-49" value="Airflow webserver" style="rounded=0;whiteSpace=wrap;html=1;fillColor=none;" parent="1" vertex="1">
          <mxGeometry x="260" y="655" width="106" height="50" as="geometry" />
        </mxCell>
        <mxCell id="qMInGugSPwoXezCMGcF5-50" value="" style="endArrow=classic;html=1;rounded=0;dashed=1;exitX=0;exitY=0.5;exitDx=0;exitDy=0;exitPerimeter=0;" parent="1" source="qMInGugSPwoXezCMGcF5-29" edge="1">
          <mxGeometry width="50" height="50" relative="1" as="geometry">
            <mxPoint x="837" y="695" as="sourcePoint" />
            <mxPoint x="380" y="680" as="targetPoint" />
          </mxGeometry>
        </mxCell>
        <mxCell id="qMInGugSPwoXezCMGcF5-51" value="&lt;div&gt;Retrieve DAGs&lt;/div&gt;&lt;div&gt;+ task results&lt;/div&gt;" style="text;html=1;align=center;verticalAlign=middle;whiteSpace=wrap;rounded=0;" parent="1" vertex="1">
          <mxGeometry x="429" y="650" width="90" height="30" as="geometry" />
        </mxCell>
        <mxCell id="qMInGugSPwoXezCMGcF5-52" value="" style="endArrow=classic;html=1;rounded=0;dashed=1;" parent="1" edge="1">
          <mxGeometry width="50" height="50" relative="1" as="geometry">
            <mxPoint x="110" y="680" as="sourcePoint" />
            <mxPoint x="120" y="310" as="targetPoint" />
          </mxGeometry>
        </mxCell>
        <mxCell id="qMInGugSPwoXezCMGcF5-53" value="" style="endArrow=none;dashed=1;html=1;strokeWidth=2;rounded=0;exitX=0;exitY=0.5;exitDx=0;exitDy=0;" parent="1" source="qMInGugSPwoXezCMGcF5-49" edge="1">
          <mxGeometry width="50" height="50" relative="1" as="geometry">
            <mxPoint x="230" y="682.5" as="sourcePoint" />
            <mxPoint x="110" y="678" as="targetPoint" />
          </mxGeometry>
        </mxCell>
        <mxCell id="qMInGugSPwoXezCMGcF5-54" value="4 -&amp;nbsp;&lt;span style=&quot;background-color: initial;&quot;&gt;User monitors&lt;/span&gt;&lt;div&gt;execution + task&lt;/div&gt;&lt;div&gt;results using web&lt;/div&gt;&lt;div&gt;interface.&lt;/div&gt;" style="text;html=1;align=center;verticalAlign=middle;whiteSpace=wrap;rounded=0;" parent="1" vertex="1">
          <mxGeometry x="40" y="450" width="270" height="30" as="geometry" />
        </mxCell>
        <mxCell id="xsITRVogCyAZpX_7nPJK-1" value="" style="endArrow=classic;html=1;rounded=0;entryX=-0.011;entryY=0.438;entryDx=0;entryDy=0;dashed=1;entryPerimeter=0;exitX=1;exitY=0.5;exitDx=0;exitDy=0;" parent="1" source="qMInGugSPwoXezCMGcF5-30" target="qMInGugSPwoXezCMGcF5-35" edge="1">
          <mxGeometry width="50" height="50" relative="1" as="geometry">
            <mxPoint x="830" y="280" as="sourcePoint" />
            <mxPoint x="867" y="280" as="targetPoint" />
          </mxGeometry>
        </mxCell>
        <mxCell id="KGi4ESJfJmFKGLPXlkyK-1" value="Airflow metastore (database)" style="text;whiteSpace=wrap;" vertex="1" parent="1">
          <mxGeometry x="559" y="720" width="100" height="50" as="geometry" />
        </mxCell>
      </root>
    </mxGraphModel>
  </diagram>
</mxfile>
